<svg xmlns="http://www.w3.org/2000/svg" id="Layer_1" version="1.1" viewBox="34.75 26.8 129.8 147.75" width="296.34711463065446" height="337.4421246673272">
  
  <defs>
    <style>
      .st0 {
        fill: none;
        stroke: #e5e5e5;
        stroke-miterlimit: 10;
        stroke-width: .5px;
      }

      .st1 {
        fill: #fff;
      }

      .st1, .st2, .st3, .st4 {
        fill-rule: evenodd;
      }

      .st3 {
        fill: #a5acaf;
      }

      .st4 {
        fill: #331c54;
      }
    </style>
  </defs>
  <path class="st3" d="M99.7,26.8c-23.4,0-38.9,3.9-38.9,3.9v67.9c0,6.1.7,10.8,7.8,15.4,3.5,2.3,31.1,20.3,31.1,20.3,0,0,27.6-18,31.1-20.3,7-4.6,7.8-9.3,7.8-15.4V30.7s-15.6-3.9-38.9-3.9"/>
  <path class="st4" d="M136.2,98.6c0,2.9-.2,5.3-1.1,7.4-1,2.3-2.8,4.2-5.7,6.1-3.1,2-24.4,15.9-29.9,19.5-5.5-3.6-26.8-17.5-29.9-19.5-2.9-1.9-4.7-3.8-5.7-6.1-.9-2.1-1.1-4.5-1.1-7.4v-55.5c5.2-1,18.6-3.2,36.6-3.2s31.4,2.2,36.6,3.2v55.5h.2Z"/>
  <path class="st1" d="M84.9,97v4.7h22.7l6.9-5.9v-16.9l-6.9-5.9h-4v4.7h2.2l4,3.4v12.6l-4,3.4h-12.4v-19.5h2.3v-4.7h-10.9v4.7h3.9v19.5h-3.9,0Z"/>
  <path class="st1" d="M99.7,52.6c1.6,0,2.9,1.3,2.9,2.9s-1.3,2.9-2.9,2.9-2.9-1.3-2.9-2.9,1.3-2.9,2.9-2.9ZM97.3,95.5h4.7v-26.5h17.1v-4.7h-17.1v-1.8c3.9-1.3,6-5.5,4.8-9.4-1-3.1-3.9-5.1-7.1-5.1s-7.5,3.3-7.5,7.5h0c0,3.2,2.1,6.1,5.1,7.1v1.8h-17.1v4.7h17.1v26.5h0Z"/>
  <path class="st1" d="M121.4,90.8v6.4c0,2.2-.6,3.2-2.6,4.6-1.4.9-12,7.8-16.8,10.8v-9.3h-4.7v9.3c-5.6-3.6-11.2-7.2-16.8-10.8-2.1-1.3-2.6-2.3-2.6-4.6v-6.4h-4.7v7.9c0,2.1.4,4.1,3.4,6.1,3,1.9,23.1,14.9,23.1,14.9,0,0,20.1-13,23.1-14.9s3.4-3.9,3.4-6.1v-7.9h-4.8Z"/>
  <path class="st4" d="M74.7,37.1v-4.6c1.4-.2,2.8-.3,4.2-.5v1c-.9,0-1.9.2-2.8.3v.9c.7,0,1.3-.2,2-.2v.8c-.7,0-1.3.2-2,.2v.9c.9-.1,1.9-.2,2.8-.3v1.1c-1.4.1-2.8.3-4.2.5M84.2,36.3c-.9,0-1.7-.1-2.5-.5l.5-.9c.6.3,1.4.5,2,.5s1-.3,1-.6c0-.8-3.3,0-3.3-1.7s.9-1.6,2.3-1.7c1,0,1.7.2,2.3.6-.2.3-.4.5-.6.8-.5-.3-1.1-.5-1.7-.4-.6,0-1,.3-1,.6,0,.7,3.3,0,3.3,1.7s-1,1.6-2.3,1.7M91.9,32.1v3.6h-1.4v-3.6h-1.7v-1c1.6,0,3.2-.2,4.8-.2v1h-1.7M95.2,35.6v-1h1v1h-1M102.3,35.6v-4c.4,0,.6-.3.6-.6h.6v4.6h-1.2M109.7,32.9c0-.5-.4-.9-1-.9s-.9.2-.9.6h0c0,.5.3.8.9.8s.8-.1,1.1-.3v-.2h0ZM108.6,35.9c-.8,0-1.5-.3-2-.7.2-.2.4-.5.5-.7.4.3.9.5,1.4.5.8,0,1.2-.4,1.2-1.1v-.3c-.3.3-.8.5-1.3.4-1.1,0-1.8-.6-1.8-1.4h0c0-1,.8-1.7,2.1-1.7s2.2,1,2.2,2.3v.5c0,1.3-.9,2.2-2.3,2.1h0ZM116.9,33.4c0-.5-.4-.9-1-1-.6,0-.9.2-.9.6h0c0,.5.3.8.9.8s.8,0,1.1-.3v-.2h0ZM115.8,36.4c-.8,0-1.5-.3-2-.8l.5-.7c.4.3.9.5,1.4.6.8,0,1.2-.4,1.2-1v-.3c-.3.3-.8.4-1.3.4-1.1,0-1.8-.7-1.8-1.5h0c0-1,.8-1.7,2.1-1.6,1.3.1,2.2,1,2.2,2.3v.5c0,1.3-.9,2.2-2.3,2h0ZM122.7,33.5c-.4.4-.9.9-1.3,1.3.4,0,.9,0,1.3.1v-1.4h0ZM123.9,36v1.1c-.4,0-.8,0-1.2-.1v-1.1c-.8,0-1.7-.2-2.5-.3v-.8c.9-.8,1.7-1.7,2.6-2.5h1.1v2.8h.7v1h-.7Z"/>
  <path class="st2" d="M60.7,144.5h5.1v1.7h-3.2v1h3.1v1.6h-3.1v2.3h-1.8v-6.6h-.1ZM72.5,147.6c.7,0,1-.1,1-.7s-.2-.8-1-.8h-1.5v1.5h1.5ZM72.2,149.1h-1.2v2h-1.8v-6.6h3.4c2.4,0,2.8,1,2.8,2.3s-.2,1.7-1.3,2.1l1.2,2.2h-2s-1.1-2-1.1-2ZM78.5,144.5h5.3v1.7h-3.4v.8h3.3v1.6h-3.3v.9h3.4v1.6h-5.3v-6.6ZM87.5,144.5h2.4l1.5,3.9,1.5-3.9h2.4v6.6h-1.8v-3.8l-1.5,3.8h-1.4l-1.5-3.8v3.8h-1.7v-6.6h0ZM102.4,148.7l-.8-2.1-.8,2.1h1.6ZM100.7,144.4h1.9l2.7,6.7h-1.9l-.3-.9h-2.8l-.3.9h-1.8l2.6-6.7h0ZM107.8,144.5h2l2.6,3.5v-3.5h1.8v6.6h-1.7l-2.9-3.9v3.9h-1.8v-6.6ZM119,146.1h-2.2v-1.7h6.2v1.7h-2.2v4.9h-1.9v-4.9h0ZM125.8,144.5h1.8v5h3.1v1.6h-5v-6.6h0ZM133.3,144.5h5.3v1.7h-3.4v.8h3.3v1.6h-3.3v.9h3.5v1.6h-5.3v-6.6h0Z"/>
  <g>
    <path class="st0" d="M142.4,161l.7.7v3.2l-.9.8h-6v-4.6h6.3,0ZM143.5,168.8l2.9-2.4v-6.1l-2.6-2.6h-13.3v3.3h2.3v9.9h-2.3v3.3h5.6v-5.3h3.4l3.6,5.3h4.2v-3.3h-2.4l-1.4-2.1h0ZM48.3,168.9l-2,2h-5.6v-9.9h5.6l2,2v5.9ZM35,157.7v3.3h2.3v9.9h-2.3v3.4h12.6l3.9-3.9v-8.6l-3.9-3.9-12.6-.2ZM67.1,168.9l-2,2h-4.6l-2-2v-5.9l2-2h4.6l2,2v5.9ZM59.1,157.7l-3.9,3.9v8.7l3.9,3.9h7.3l3.9-3.9v-8.7l-3.9-3.9h-7.3ZM164.3,163v-2.7l-2.6-2.6h-8.7l-2.6,2.6v4.7l2.6,2.6h7.3l.7.7v1.9l-.7.7h-5.9l-.7-.7v-1.3h-3.3v2.7l2.6,2.6h8.7l2.6-2.6v-4.7l-2.6-2.6h-7.3l-.7-.7v-1.9l.7-.7h5.9l.7.7v1.3s3.3,0,3.3,0ZM77.7,157.7l-3.9,3.9v8.7l3.9,3.9h7.3l3.9-3.9v-2.3h-3.3v1l-2,2h-4.6l-2-2v-5.9l2-2h4.6l2,2v1h3.3v-2.3l-3.9-3.9h-7.3v-.2ZM108.7,161v-3.3h-3.3l-7.6,6.9v-6.9h-5.6v3.3h2.3v9.9h-2.3v3.3h5.6v-5.2l2.2-1.9,5.3,7.2h3.5v-3.3h-1.8l-4.5-6.1,4.3-3.9h2,0ZM112,161h2.6v9.9h-2.7v3.3h14.9v-5h-3.3v1.7h-5.6v-3.3h5.3v-3.3h-5.3v-3.3h5.6v1.7h3.3v-5h-14.9v3.3h0Z"/>
    <path class="st4" d="M142.4,161l.7.7v3.2l-.9.8h-6v-4.6h6.3,0ZM143.5,168.8l2.9-2.4v-6.1l-2.6-2.6h-13.3v3.3h2.3v9.9h-2.3v3.3h5.6v-5.3h3.4l3.6,5.3h4.2v-3.3h-2.4l-1.4-2.1h0ZM48.3,168.9l-2,2h-5.6v-9.9h5.6l2,2v5.9ZM35,157.7v3.3h2.3v9.9h-2.3v3.4h12.6l3.9-3.9v-8.6l-3.9-3.9-12.6-.2ZM67.1,168.9l-2,2h-4.6l-2-2v-5.9l2-2h4.6l2,2v5.9ZM59.1,157.7l-3.9,3.9v8.7l3.9,3.9h7.3l3.9-3.9v-8.7l-3.9-3.9h-7.3ZM164.3,163v-2.7l-2.6-2.6h-8.7l-2.6,2.6v4.7l2.6,2.6h7.3l.7.7v1.9l-.7.7h-5.9l-.7-.7v-1.3h-3.3v2.7l2.6,2.6h8.7l2.6-2.6v-4.7l-2.6-2.6h-7.3l-.7-.7v-1.9l.7-.7h5.9l.7.7v1.3s3.3,0,3.3,0ZM77.7,157.7l-3.9,3.9v8.7l3.9,3.9h7.3l3.9-3.9v-2.3h-3.3v1l-2,2h-4.6l-2-2v-5.9l2-2h4.6l2,2v1h3.3v-2.3l-3.9-3.9h-7.3v-.2ZM108.7,161v-3.3h-3.3l-7.6,6.9v-6.9h-5.6v3.3h2.3v9.9h-2.3v3.3h5.6v-5.2l2.2-1.9,5.3,7.2h3.5v-3.3h-1.8l-4.5-6.1,4.3-3.9h2,0ZM112,161h2.6v9.9h-2.7v3.3h14.9v-5h-3.3v1.7h-5.6v-3.3h5.3v-3.3h-5.3v-3.3h5.6v1.7h3.3v-5h-14.9v3.3h0Z"/>
  </g>
</svg>